<mxfile host="app.diagrams.net" modified="2023-12-31T17:27:17.107Z" agent="Mozilla/5.0 (Windows NT 10.0; Win64; x64) AppleWebKit/537.36 (KHTML, like Gecko) Chrome/120.0.0.0 Safari/537.36" etag="ehBUSGXGpAJ4mfiDwXYG" version="22.1.16" type="github">
  <diagram name="Page-1" id="kxNCET3wKZughwCFv8Sz">
    <mxGraphModel dx="1434" dy="833" grid="1" gridSize="10" guides="1" tooltips="1" connect="1" arrows="1" fold="1" page="1" pageScale="1" pageWidth="4681" pageHeight="3300" math="0" shadow="0">
      <root>
        <mxCell id="0" />
        <mxCell id="1" parent="0" />
        <mxCell id="_pBkUwRdFLSaeBpOlsYY-3" value="" style="edgeStyle=orthogonalEdgeStyle;rounded=0;orthogonalLoop=1;jettySize=auto;html=1;" edge="1" parent="1" source="_pBkUwRdFLSaeBpOlsYY-1">
          <mxGeometry relative="1" as="geometry">
            <mxPoint x="380" y="250" as="targetPoint" />
          </mxGeometry>
        </mxCell>
        <mxCell id="_pBkUwRdFLSaeBpOlsYY-1" value="Get Video" style="rounded=1;whiteSpace=wrap;html=1;" vertex="1" parent="1">
          <mxGeometry x="180" y="220" width="120" height="60" as="geometry" />
        </mxCell>
        <mxCell id="_pBkUwRdFLSaeBpOlsYY-4" value="" style="rounded=1;whiteSpace=wrap;html=1;" vertex="1" parent="1">
          <mxGeometry x="380" y="117.5" width="390" height="265" as="geometry" />
        </mxCell>
        <mxCell id="_pBkUwRdFLSaeBpOlsYY-7" value="" style="edgeStyle=orthogonalEdgeStyle;rounded=0;orthogonalLoop=1;jettySize=auto;html=1;" edge="1" parent="1" source="_pBkUwRdFLSaeBpOlsYY-5" target="_pBkUwRdFLSaeBpOlsYY-6">
          <mxGeometry relative="1" as="geometry" />
        </mxCell>
        <mxCell id="_pBkUwRdFLSaeBpOlsYY-5" value="Convert to Gray" style="rounded=1;whiteSpace=wrap;html=1;" vertex="1" parent="1">
          <mxGeometry x="410" y="180" width="120" height="60" as="geometry" />
        </mxCell>
        <mxCell id="_pBkUwRdFLSaeBpOlsYY-9" value="" style="edgeStyle=orthogonalEdgeStyle;rounded=0;orthogonalLoop=1;jettySize=auto;html=1;" edge="1" parent="1" source="_pBkUwRdFLSaeBpOlsYY-6" target="_pBkUwRdFLSaeBpOlsYY-8">
          <mxGeometry relative="1" as="geometry" />
        </mxCell>
        <mxCell id="_pBkUwRdFLSaeBpOlsYY-6" value="Canny Edge Detector" style="rounded=1;whiteSpace=wrap;html=1;" vertex="1" parent="1">
          <mxGeometry x="610" y="180" width="120" height="60" as="geometry" />
        </mxCell>
        <mxCell id="_pBkUwRdFLSaeBpOlsYY-8" value="Hough Lines" style="rounded=1;whiteSpace=wrap;html=1;" vertex="1" parent="1">
          <mxGeometry x="515" y="280" width="120" height="60" as="geometry" />
        </mxCell>
        <mxCell id="_pBkUwRdFLSaeBpOlsYY-27" value="" style="group" vertex="1" connectable="0" parent="1">
          <mxGeometry x="230" y="470" width="690" height="510" as="geometry" />
        </mxCell>
        <mxCell id="_pBkUwRdFLSaeBpOlsYY-10" value="&lt;div style=&quot;&quot;&gt;&lt;span style=&quot;background-color: initial;&quot;&gt;&lt;b&gt;&lt;font style=&quot;font-size: 17px;&quot;&gt;Canny Edge Detector&lt;/font&gt;&lt;/b&gt;&lt;/span&gt;&lt;/div&gt;" style="rounded=1;whiteSpace=wrap;html=1;align=center;horizontal=1;verticalAlign=top;" vertex="1" parent="_pBkUwRdFLSaeBpOlsYY-27">
          <mxGeometry x="50" width="640" height="510" as="geometry" />
        </mxCell>
        <mxCell id="_pBkUwRdFLSaeBpOlsYY-13" value="Non Maximum&amp;nbsp;&lt;br&gt;Suppression" style="whiteSpace=wrap;html=1;rounded=1;" vertex="1" parent="_pBkUwRdFLSaeBpOlsYY-27">
          <mxGeometry x="500" y="150" width="120" height="60" as="geometry" />
        </mxCell>
        <mxCell id="_pBkUwRdFLSaeBpOlsYY-24" value="" style="group" vertex="1" connectable="0" parent="_pBkUwRdFLSaeBpOlsYY-27">
          <mxGeometry x="100" y="150" width="520" height="240" as="geometry" />
        </mxCell>
        <mxCell id="_pBkUwRdFLSaeBpOlsYY-11" value="Noise Reduction&amp;nbsp;&lt;br&gt;&lt;b&gt;Gaussian Filter&lt;/b&gt;" style="rounded=1;whiteSpace=wrap;html=1;" vertex="1" parent="_pBkUwRdFLSaeBpOlsYY-24">
          <mxGeometry width="120" height="60" as="geometry" />
        </mxCell>
        <mxCell id="_pBkUwRdFLSaeBpOlsYY-12" value="Gradient Calculation" style="rounded=1;whiteSpace=wrap;html=1;" vertex="1" parent="_pBkUwRdFLSaeBpOlsYY-24">
          <mxGeometry x="200" width="120" height="60" as="geometry" />
        </mxCell>
        <mxCell id="_pBkUwRdFLSaeBpOlsYY-20" style="edgeStyle=orthogonalEdgeStyle;rounded=0;orthogonalLoop=1;jettySize=auto;html=1;exitX=1;exitY=0.5;exitDx=0;exitDy=0;" edge="1" parent="_pBkUwRdFLSaeBpOlsYY-24" source="_pBkUwRdFLSaeBpOlsYY-11" target="_pBkUwRdFLSaeBpOlsYY-12">
          <mxGeometry relative="1" as="geometry" />
        </mxCell>
        <mxCell id="_pBkUwRdFLSaeBpOlsYY-15" value="Double Threshholding" style="whiteSpace=wrap;html=1;rounded=1;" vertex="1" parent="_pBkUwRdFLSaeBpOlsYY-24">
          <mxGeometry x="400" y="140" width="120" height="60" as="geometry" />
        </mxCell>
        <mxCell id="_pBkUwRdFLSaeBpOlsYY-18" value="Edge Tracking by Hysterisis" style="whiteSpace=wrap;html=1;rounded=1;" vertex="1" parent="_pBkUwRdFLSaeBpOlsYY-24">
          <mxGeometry x="200" y="140" width="120" height="60" as="geometry" />
        </mxCell>
        <mxCell id="_pBkUwRdFLSaeBpOlsYY-19" value="" style="edgeStyle=orthogonalEdgeStyle;rounded=0;orthogonalLoop=1;jettySize=auto;html=1;" edge="1" parent="_pBkUwRdFLSaeBpOlsYY-24" source="_pBkUwRdFLSaeBpOlsYY-15" target="_pBkUwRdFLSaeBpOlsYY-18">
          <mxGeometry relative="1" as="geometry" />
        </mxCell>
        <mxCell id="_pBkUwRdFLSaeBpOlsYY-14" value="" style="edgeStyle=orthogonalEdgeStyle;rounded=0;orthogonalLoop=1;jettySize=auto;html=1;" edge="1" parent="_pBkUwRdFLSaeBpOlsYY-27" source="_pBkUwRdFLSaeBpOlsYY-12" target="_pBkUwRdFLSaeBpOlsYY-13">
          <mxGeometry relative="1" as="geometry" />
        </mxCell>
        <mxCell id="_pBkUwRdFLSaeBpOlsYY-16" value="" style="edgeStyle=orthogonalEdgeStyle;rounded=0;orthogonalLoop=1;jettySize=auto;html=1;" edge="1" parent="_pBkUwRdFLSaeBpOlsYY-27" source="_pBkUwRdFLSaeBpOlsYY-13" target="_pBkUwRdFLSaeBpOlsYY-15">
          <mxGeometry relative="1" as="geometry" />
        </mxCell>
        <mxCell id="_pBkUwRdFLSaeBpOlsYY-21" style="edgeStyle=orthogonalEdgeStyle;rounded=0;orthogonalLoop=1;jettySize=auto;html=1;exitX=0.5;exitY=1;exitDx=0;exitDy=0;entryX=0.5;entryY=1;entryDx=0;entryDy=0;" edge="1" parent="_pBkUwRdFLSaeBpOlsYY-27" source="_pBkUwRdFLSaeBpOlsYY-18" target="_pBkUwRdFLSaeBpOlsYY-10">
          <mxGeometry relative="1" as="geometry">
            <Array as="points">
              <mxPoint x="360" y="380" />
              <mxPoint x="370" y="380" />
            </Array>
          </mxGeometry>
        </mxCell>
        <mxCell id="_pBkUwRdFLSaeBpOlsYY-22" value="Output" style="edgeLabel;html=1;align=center;verticalAlign=middle;resizable=0;points=[];" vertex="1" connectable="0" parent="_pBkUwRdFLSaeBpOlsYY-21">
          <mxGeometry x="0.3333" relative="1" as="geometry">
            <mxPoint as="offset" />
          </mxGeometry>
        </mxCell>
        <mxCell id="_pBkUwRdFLSaeBpOlsYY-25" value="" style="endArrow=classic;html=1;rounded=0;" edge="1" parent="_pBkUwRdFLSaeBpOlsYY-27">
          <mxGeometry width="50" height="50" relative="1" as="geometry">
            <mxPoint y="180" as="sourcePoint" />
            <mxPoint x="100" y="180" as="targetPoint" />
          </mxGeometry>
        </mxCell>
        <mxCell id="_pBkUwRdFLSaeBpOlsYY-26" value="Input" style="edgeLabel;html=1;align=center;verticalAlign=middle;resizable=0;points=[];" vertex="1" connectable="0" parent="_pBkUwRdFLSaeBpOlsYY-25">
          <mxGeometry x="0.12" y="1" relative="1" as="geometry">
            <mxPoint as="offset" />
          </mxGeometry>
        </mxCell>
      </root>
    </mxGraphModel>
  </diagram>
</mxfile>
